<?xml version="1.0" encoding="UTF-8"?>
<svg width="170" height="50" viewBox="0 0 170 50" fill="none" xmlns="http://www.w3.org/2000/svg">
  <!-- WF Letters -->
  <path d="M15 10L20 40H25L30 20L35 40H40L45 10H38L36 30L31 10H29L24 30L22 10H15Z" fill="#0F172A"/>
  <path d="M55 10H65V15H60V22H65V27H60V40H55V10Z" fill="#0F172A"/>

  <!-- House/Roof Symbol -->
  <path d="M75 25L85 15L95 25H90V35H80V25H75Z" fill="#F9C22E"/>

  <!-- DESIGN -->
  <path d="M105 22.5C105 19.5 107.5 17 110.5 17H120V28H110.5C107.5 28 105 25.5 105 22.5ZM110.5 22.5H115V22H110.5V22.5Z" fill="#0F172A"/>
  <path d="M125 17H130V40H125V17Z" fill="#0F172A"/>
  <path d="M135 40V17H148V22H140V26H146V31H140V35H148V40H135Z" fill="#0F172A"/>
  <path d="M153 17H158V35H165V40H153V17Z" fill="#0F172A"/>
  <path d="M170 17H175V22C175 24.2 173.2 26 171 26H170V17ZM170 31H171C173.2 31 175 32.8 175 35V40H170V31Z" fill="#0F172A"/>

  <!-- Plus Symbol -->
  <path d="M100 25H105V26H100V25Z" fill="#F9C22E"/>
  <path d="M102 22.5V28.5H103V22.5H102Z" fill="#F9C22E"/>

  <!-- BUILD -->
  <path d="M105 33.5C105 31.5 106.5 30 108.5 30H115V37H108.5C106.5 37 105 35.5 105 33.5ZM110 33.5H112V33H110V33.5Z" fill="#0F172A"/>
  <path d="M120 30H125V37H130V30H135V45H130V42H125V45H120V30Z" fill="#0F172A"/>
  <path d="M140 30H145V45H140V30Z" fill="#0F172A"/>
  <path d="M150 30H155V42H160V45H150V30Z" fill="#0F172A"/>
  <path d="M165 37.5C165 41.1 162.1 44 158.5 44H158V41H158.5C160.4 41 162 39.4 162 37.5C162 35.6 160.4 34 158.5 34H158V31H158.5C162.1 31 165 33.9 165 37.5Z" fill="#0F172A"/>
</svg>
